{
	"asset":{
		"generator":"Khronos glTF Blender I/O v5.2.39",
		"version":"2.0"
	},
	"extensionsUsed":[
		"KHR_materials_specular"
	],
	"scene":0,
	"scenes":[
		{
			"name":"Scene",
			"nodes":[
				0
			]
		}
	],
	"nodes":[
		{
			"mesh":0,
			"name":"Skeleton_LegR_own"
		}
	],
	"materials":[
		{
			"doubleSided":true,
			"emissiveFactor":[
				0.06499999761581421,
				0.07800000160932541,
				0.06369999796152115
			],
			"extensions":{
				"KHR_materials_specular":{
					"specularFactor":0.20000000298023224
				}
			},
			"name":"Bone_own",
			"pbrMetallicRoughness":{
				"baseColorFactor":[
					0.029999999329447746,
					0.03550000116229057,
					0.021700000390410423,
					1
				],
				"metallicFactor":0,
				"roughnessFactor":0.949999988079071
			}
		},
		{
			"doubleSided":true,
			"emissiveFactor":[
				0.03579999879002571,
				0.042899999767541885,
				0.03500000014901161
			],
			"extensions":{
				"KHR_materials_specular":{
					"specularFactor":0.20000000298023224
				}
			},
			"name":"BoneDark_own",
			"pbrMetallicRoughness":{
				"baseColorFactor":[
					0.016499999910593033,
					0.019500000402331352,
					0.011900000274181366,
					1
				],
				"metallicFactor":0,
				"roughnessFactor":0.949999988079071
			}
		}
	],
	"meshes":[
		{
			"name":"Skeleton_LegR_own.007",
			"primitives":[
				{
					"attributes":{
						"POSITION":0,
						"NORMAL":1
					},
					"indices":2,
					"material":0
				},
				{
					"attributes":{
						"POSITION":3,
						"NORMAL":4
					},
					"indices":5,
					"material":1
				}
			]
		}
	],
	"accessors":[
		{
			"bufferView":0,
			"componentType":5126,
			"count":382,
			"max":[
				0.060621779412031174,
				0.017999999225139618,
				0.07599999755620956
			],
			"min":[
				-0.060621779412031174,
				-0.8159999847412109,
				-0.16200000047683716
			],
			"type":"VEC3"
		},
		{
			"bufferView":1,
			"componentType":5126,
			"count":382,
			"type":"VEC3"
		},
		{
			"bufferView":2,
			"componentType":5123,
			"count":630,
			"type":"SCALAR"
		},
		{
			"bufferView":3,
			"componentType":5126,
			"count":118,
			"max":[
				0.05294427275657654,
				-0.052000001072883606,
				0.03999999910593033
			],
			"min":[
				-0.03700000047683716,
				-0.8069999814033508,
				-0.12399999797344208
			],
			"type":"VEC3"
		},
		{
			"bufferView":4,
			"componentType":5126,
			"count":118,
			"type":"VEC3"
		},
		{
			"bufferView":5,
			"componentType":5123,
			"count":204,
			"type":"SCALAR"
		}
	],
	"bufferViews":[
		{
			"buffer":0,
			"byteLength":4584,
			"byteOffset":0,
			"target":34962
		},
		{
			"buffer":0,
			"byteLength":4584,
			"byteOffset":4584,
			"target":34962
		},
		{
			"buffer":0,
			"byteLength":1260,
			"byteOffset":9168,
			"target":34963
		},
		{
			"buffer":0,
			"byteLength":1416,
			"byteOffset":10428,
			"target":34962
		},
		{
			"buffer":0,
			"byteLength":1416,
			"byteOffset":11844,
			"target":34962
		},
		{
			"buffer":0,
			"byteLength":408,
			"byteOffset":13260,
			"target":34963
		}
	],
	"buffers":[
		{
			"byteLength":13668,
			"uri":"Skeleton_LegR_own.bin"
		}
	]
}
