{
	"asset":{
		"generator":"Khronos glTF Blender I/O v5.2.39",
		"version":"2.0"
	},
	"extensionsUsed":[
		"KHR_materials_specular"
	],
	"scene":0,
	"scenes":[
		{
			"name":"Scene",
			"nodes":[
				0
			]
		}
	],
	"nodes":[
		{
			"mesh":0,
			"name":"Skeleton_Skull_own"
		}
	],
	"materials":[
		{
			"doubleSided":true,
			"emissiveFactor":[
				0.06499999761581421,
				0.07800000160932541,
				0.06369999796152115
			],
			"extensions":{
				"KHR_materials_specular":{
					"specularFactor":0.20000000298023224
				}
			},
			"name":"Bone_own",
			"pbrMetallicRoughness":{
				"baseColorFactor":[
					0.029999999329447746,
					0.03550000116229057,
					0.021700000390410423,
					1
				],
				"metallicFactor":0,
				"roughnessFactor":0.949999988079071
			}
		},
		{
			"doubleSided":true,
			"emissiveFactor":[
				0.03579999879002571,
				0.042899999767541885,
				0.03500000014901161
			],
			"extensions":{
				"KHR_materials_specular":{
					"specularFactor":0.20000000298023224
				}
			},
			"name":"BoneDark_own",
			"pbrMetallicRoughness":{
				"baseColorFactor":[
					0.016499999910593033,
					0.019500000402331352,
					0.011900000274181366,
					1
				],
				"metallicFactor":0,
				"roughnessFactor":0.949999988079071
			}
		},
		{
			"doubleSided":true,
			"emissiveFactor":[
				0.0215000007301569,
				0.025699999183416367,
				0.020999999716877937
			],
			"extensions":{
				"KHR_materials_specular":{
					"specularFactor":0.20000000298023224
				}
			},
			"name":"Grime_own",
			"pbrMetallicRoughness":{
				"baseColorFactor":[
					0.00989999994635582,
					0.011699999682605267,
					0.007160000037401915,
					1
				],
				"metallicFactor":0,
				"roughnessFactor":0.949999988079071
			}
		},
		{
			"doubleSided":true,
			"extensions":{
				"KHR_materials_specular":{
					"specularFactor":0.20000000298023224
				}
			},
			"name":"Void_own",
			"pbrMetallicRoughness":{
				"baseColorFactor":[
					0.0009299999801442027,
					0.00107999995816499,
					0.0009299999801442027,
					1
				],
				"metallicFactor":0,
				"roughnessFactor":0.949999988079071
			}
		}
	],
	"meshes":[
		{
			"name":"Skeleton_Skull_own.007",
			"primitives":[
				{
					"attributes":{
						"POSITION":0,
						"NORMAL":1
					},
					"indices":2,
					"material":0
				},
				{
					"attributes":{
						"POSITION":3,
						"NORMAL":4
					},
					"indices":5,
					"material":1
				},
				{
					"attributes":{
						"POSITION":6,
						"NORMAL":7
					},
					"indices":8,
					"material":2
				},
				{
					"attributes":{
						"POSITION":9,
						"NORMAL":10
					},
					"indices":11,
					"material":3
				}
			]
		}
	],
	"accessors":[
		{
			"bufferView":0,
			"componentType":5126,
			"count":602,
			"max":[
				0.1505923569202423,
				0.11500000208616257,
				0.16445055603981018
			],
			"min":[
				-0.1505923569202423,
				-0.1860000044107437,
				-0.18953445553779602
			],
			"type":"VEC3"
		},
		{
			"bufferView":1,
			"componentType":5126,
			"count":602,
			"type":"VEC3"
		},
		{
			"bufferView":2,
			"componentType":5123,
			"count":924,
			"type":"SCALAR"
		},
		{
			"bufferView":3,
			"componentType":5126,
			"count":206,
			"max":[
				0.07936974614858627,
				0.12317933142185211,
				0.05999999865889549
			],
			"min":[
				-0.09530419856309891,
				-0.2150000035762787,
				-0.1720000058412552
			],
			"type":"VEC3"
		},
		{
			"bufferView":4,
			"componentType":5126,
			"count":206,
			"type":"VEC3"
		},
		{
			"bufferView":5,
			"componentType":5123,
			"count":324,
			"type":"SCALAR"
		},
		{
			"bufferView":6,
			"componentType":5126,
			"count":24,
			"max":[
				0.05020439624786377,
				0.1199193224310875,
				0.05301818251609802
			],
			"min":[
				0.025795601308345795,
				0.004080674145370722,
				-0.09301818162202835
			],
			"type":"VEC3"
		},
		{
			"bufferView":7,
			"componentType":5126,
			"count":24,
			"type":"VEC3"
		},
		{
			"bufferView":8,
			"componentType":5123,
			"count":36,
			"type":"SCALAR"
		},
		{
			"bufferView":9,
			"componentType":5126,
			"count":96,
			"max":[
				0.05050000175833702,
				0.02199999988079071,
				-0.13500000536441803
			],
			"min":[
				-0.05050000175833702,
				-0.13500000536441803,
				-0.17499999701976776
			],
			"type":"VEC3"
		},
		{
			"bufferView":10,
			"componentType":5126,
			"count":96,
			"type":"VEC3"
		},
		{
			"bufferView":11,
			"componentType":5123,
			"count":144,
			"type":"SCALAR"
		}
	],
	"bufferViews":[
		{
			"buffer":0,
			"byteLength":7224,
			"byteOffset":0,
			"target":34962
		},
		{
			"buffer":0,
			"byteLength":7224,
			"byteOffset":7224,
			"target":34962
		},
		{
			"buffer":0,
			"byteLength":1848,
			"byteOffset":14448,
			"target":34963
		},
		{
			"buffer":0,
			"byteLength":2472,
			"byteOffset":16296,
			"target":34962
		},
		{
			"buffer":0,
			"byteLength":2472,
			"byteOffset":18768,
			"target":34962
		},
		{
			"buffer":0,
			"byteLength":648,
			"byteOffset":21240,
			"target":34963
		},
		{
			"buffer":0,
			"byteLength":288,
			"byteOffset":21888,
			"target":34962
		},
		{
			"buffer":0,
			"byteLength":288,
			"byteOffset":22176,
			"target":34962
		},
		{
			"buffer":0,
			"byteLength":72,
			"byteOffset":22464,
			"target":34963
		},
		{
			"buffer":0,
			"byteLength":1152,
			"byteOffset":22536,
			"target":34962
		},
		{
			"buffer":0,
			"byteLength":1152,
			"byteOffset":23688,
			"target":34962
		},
		{
			"buffer":0,
			"byteLength":288,
			"byteOffset":24840,
			"target":34963
		}
	],
	"buffers":[
		{
			"byteLength":25128,
			"uri":"Skeleton_Skull_own.bin"
		}
	]
}
