{
	"asset":{
		"generator":"Khronos glTF Blender I/O v5.2.39",
		"version":"2.0"
	},
	"extensionsUsed":[
		"KHR_materials_specular"
	],
	"scene":0,
	"scenes":[
		{
			"name":"Scene",
			"nodes":[
				0
			]
		}
	],
	"nodes":[
		{
			"mesh":0,
			"name":"Skeleton_Torso_own"
		}
	],
	"materials":[
		{
			"doubleSided":true,
			"emissiveFactor":[
				0.06499999761581421,
				0.07800000160932541,
				0.06369999796152115
			],
			"extensions":{
				"KHR_materials_specular":{
					"specularFactor":0.20000000298023224
				}
			},
			"name":"Bone_own",
			"pbrMetallicRoughness":{
				"baseColorFactor":[
					0.029999999329447746,
					0.03550000116229057,
					0.021700000390410423,
					1
				],
				"metallicFactor":0,
				"roughnessFactor":0.949999988079071
			}
		},
		{
			"doubleSided":true,
			"emissiveFactor":[
				0.03579999879002571,
				0.042899999767541885,
				0.03500000014901161
			],
			"extensions":{
				"KHR_materials_specular":{
					"specularFactor":0.20000000298023224
				}
			},
			"name":"BoneDark_own",
			"pbrMetallicRoughness":{
				"baseColorFactor":[
					0.016499999910593033,
					0.019500000402331352,
					0.011900000274181366,
					1
				],
				"metallicFactor":0,
				"roughnessFactor":0.949999988079071
			}
		},
		{
			"doubleSided":true,
			"emissiveFactor":[
				0.0215000007301569,
				0.025699999183416367,
				0.020999999716877937
			],
			"extensions":{
				"KHR_materials_specular":{
					"specularFactor":0.20000000298023224
				}
			},
			"name":"Grime_own",
			"pbrMetallicRoughness":{
				"baseColorFactor":[
					0.00989999994635582,
					0.011699999682605267,
					0.007160000037401915,
					1
				],
				"metallicFactor":0,
				"roughnessFactor":0.949999988079071
			}
		}
	],
	"meshes":[
		{
			"name":"Skeleton_Torso_own.007",
			"primitives":[
				{
					"attributes":{
						"POSITION":0,
						"NORMAL":1
					},
					"indices":2,
					"material":0
				},
				{
					"attributes":{
						"POSITION":3,
						"NORMAL":4
					},
					"indices":5,
					"material":1
				},
				{
					"attributes":{
						"POSITION":6,
						"NORMAL":7
					},
					"indices":8,
					"material":2
				}
			]
		}
	],
	"accessors":[
		{
			"bufferView":0,
			"componentType":5126,
			"count":2404,
			"max":[
				0.21701422333717346,
				0.7960000038146973,
				0.10999999940395355
			],
			"min":[
				-0.21701422333717346,
				0,
				-0.13099999725818634
			],
			"type":"VEC3"
		},
		{
			"bufferView":1,
			"componentType":5126,
			"count":2404,
			"type":"VEC3"
		},
		{
			"bufferView":2,
			"componentType":5123,
			"count":3852,
			"type":"SCALAR"
		},
		{
			"bufferView":3,
			"componentType":5126,
			"count":288,
			"max":[
				0.1822725534439087,
				0.6823784112930298,
				0.08699999749660492
			],
			"min":[
				-0.1822725534439087,
				0.06199999898672104,
				-0.11299999803304672
			],
			"type":"VEC3"
		},
		{
			"bufferView":4,
			"componentType":5126,
			"count":288,
			"type":"VEC3"
		},
		{
			"bufferView":5,
			"componentType":5123,
			"count":432,
			"type":"SCALAR"
		},
		{
			"bufferView":6,
			"componentType":5126,
			"count":86,
			"max":[
				0.16454482078552246,
				0.5920000076293945,
				0.08699999749660492
			],
			"min":[
				-0.16454482078552246,
				0.2619999945163727,
				-0.07699999958276749
			],
			"type":"VEC3"
		},
		{
			"bufferView":7,
			"componentType":5126,
			"count":86,
			"type":"VEC3"
		},
		{
			"bufferView":8,
			"componentType":5123,
			"count":144,
			"type":"SCALAR"
		}
	],
	"bufferViews":[
		{
			"buffer":0,
			"byteLength":28848,
			"byteOffset":0,
			"target":34962
		},
		{
			"buffer":0,
			"byteLength":28848,
			"byteOffset":28848,
			"target":34962
		},
		{
			"buffer":0,
			"byteLength":7704,
			"byteOffset":57696,
			"target":34963
		},
		{
			"buffer":0,
			"byteLength":3456,
			"byteOffset":65400,
			"target":34962
		},
		{
			"buffer":0,
			"byteLength":3456,
			"byteOffset":68856,
			"target":34962
		},
		{
			"buffer":0,
			"byteLength":864,
			"byteOffset":72312,
			"target":34963
		},
		{
			"buffer":0,
			"byteLength":1032,
			"byteOffset":73176,
			"target":34962
		},
		{
			"buffer":0,
			"byteLength":1032,
			"byteOffset":74208,
			"target":34962
		},
		{
			"buffer":0,
			"byteLength":288,
			"byteOffset":75240,
			"target":34963
		}
	],
	"buffers":[
		{
			"byteLength":75528,
			"uri":"Skeleton_Torso_own.bin"
		}
	]
}
