{
	"asset":{
		"generator":"Khronos glTF Blender I/O v5.2.39",
		"version":"2.0"
	},
	"extensionsUsed":[
		"KHR_materials_specular"
	],
	"scene":0,
	"scenes":[
		{
			"name":"Scene",
			"nodes":[
				0
			]
		}
	],
	"nodes":[
		{
			"mesh":0,
			"name":"Skeleton_ArmR_own"
		}
	],
	"materials":[
		{
			"doubleSided":true,
			"emissiveFactor":[
				0.06499999761581421,
				0.07800000160932541,
				0.06369999796152115
			],
			"extensions":{
				"KHR_materials_specular":{
					"specularFactor":0.20000000298023224
				}
			},
			"name":"Bone_own",
			"pbrMetallicRoughness":{
				"baseColorFactor":[
					0.029999999329447746,
					0.03550000116229057,
					0.021700000390410423,
					1
				],
				"metallicFactor":0,
				"roughnessFactor":0.949999988079071
			}
		},
		{
			"doubleSided":true,
			"emissiveFactor":[
				0.03579999879002571,
				0.042899999767541885,
				0.03500000014901161
			],
			"extensions":{
				"KHR_materials_specular":{
					"specularFactor":0.20000000298023224
				}
			},
			"name":"BoneDark_own",
			"pbrMetallicRoughness":{
				"baseColorFactor":[
					0.016499999910593033,
					0.019500000402331352,
					0.011900000274181366,
					1
				],
				"metallicFactor":0,
				"roughnessFactor":0.949999988079071
			}
		}
	],
	"meshes":[
		{
			"name":"Skeleton_ArmR_own.007",
			"primitives":[
				{
					"attributes":{
						"POSITION":0,
						"NORMAL":1
					},
					"indices":2,
					"material":0
				},
				{
					"attributes":{
						"POSITION":3,
						"NORMAL":4
					},
					"indices":5,
					"material":1
				}
			]
		}
	],
	"accessors":[
		{
			"bufferView":0,
			"componentType":5126,
			"count":520,
			"max":[
				0.05369357392191887,
				0.019999999552965164,
				0.06199999898672104
			],
			"min":[
				-0.07348284870386124,
				-0.7714943289756775,
				-0.06199999898672104
			],
			"type":"VEC3"
		},
		{
			"bufferView":1,
			"componentType":5126,
			"count":520,
			"type":"VEC3"
		},
		{
			"bufferView":2,
			"componentType":5123,
			"count":846,
			"type":"SCALAR"
		},
		{
			"bufferView":3,
			"componentType":5126,
			"count":110,
			"max":[
				0.03500000014901161,
				-0.04600000008940697,
				0.03200000151991844
			],
			"min":[
				-0.03500000014901161,
				-0.7089999914169312,
				-0.03200000151991844
			],
			"type":"VEC3"
		},
		{
			"bufferView":4,
			"componentType":5126,
			"count":110,
			"type":"VEC3"
		},
		{
			"bufferView":5,
			"componentType":5123,
			"count":180,
			"type":"SCALAR"
		}
	],
	"bufferViews":[
		{
			"buffer":0,
			"byteLength":6240,
			"byteOffset":0,
			"target":34962
		},
		{
			"buffer":0,
			"byteLength":6240,
			"byteOffset":6240,
			"target":34962
		},
		{
			"buffer":0,
			"byteLength":1692,
			"byteOffset":12480,
			"target":34963
		},
		{
			"buffer":0,
			"byteLength":1320,
			"byteOffset":14172,
			"target":34962
		},
		{
			"buffer":0,
			"byteLength":1320,
			"byteOffset":15492,
			"target":34962
		},
		{
			"buffer":0,
			"byteLength":360,
			"byteOffset":16812,
			"target":34963
		}
	],
	"buffers":[
		{
			"byteLength":17172,
			"uri":"Skeleton_ArmR_own.bin"
		}
	]
}
