{
	"asset":{
		"generator":"Khronos glTF Blender I/O v5.2.39",
		"version":"2.0"
	},
	"scene":0,
	"scenes":[
		{
			"name":"Scene",
			"nodes":[
				0
			]
		}
	],
	"nodes":[
		{
			"mesh":0,
			"name":"Witch_Hat_own"
		}
	],
	"materials":[
		{
			"doubleSided":true,
			"emissiveFactor":[
				0.004149999935179949,
				0.002725000027567148,
				0.006099999882280827
			],
			"name":"WitchDress_own",
			"pbrMetallicRoughness":{
				"baseColorFactor":[
					0.016599999740719795,
					0.010900000110268593,
					0.024399999529123306,
					1
				],
				"metallicFactor":0,
				"roughnessFactor":0.9200000166893005
			}
		},
		{
			"doubleSided":true,
			"emissiveFactor":[
				0.06584999710321426,
				0.17299999296665192,
				0.04270000010728836
			],
			"name":"WitchAccent_own",
			"pbrMetallicRoughness":{
				"baseColorFactor":[
					0.26339998841285706,
					0.6919999718666077,
					0.17080000042915344,
					1
				],
				"metallicFactor":0,
				"roughnessFactor":0.9200000166893005
			}
		}
	],
	"meshes":[
		{
			"name":"Witch_Hat_own.007",
			"primitives":[
				{
					"attributes":{
						"POSITION":0,
						"NORMAL":1
					},
					"indices":2,
					"material":0
				},
				{
					"attributes":{
						"POSITION":3,
						"NORMAL":4
					},
					"indices":5,
					"material":1
				}
			]
		}
	],
	"accessors":[
		{
			"bufferView":0,
			"componentType":5126,
			"count":376,
			"max":[
				0.2917096018791199,
				0.5682008862495422,
				0.2917096018791199
			],
			"min":[
				-0.2917096018791199,
				-0.017999999225139618,
				-0.2917096018791199
			],
			"type":"VEC3"
		},
		{
			"bufferView":1,
			"componentType":5126,
			"count":376,
			"type":"VEC3"
		},
		{
			"bufferView":2,
			"componentType":5123,
			"count":624,
			"type":"SCALAR"
		},
		{
			"bufferView":3,
			"componentType":5126,
			"count":98,
			"max":[
				0.17000295221805573,
				0.0860000029206276,
				0.17000295221805573
			],
			"min":[
				-0.17000295221805573,
				0.035999998450279236,
				-0.18700000643730164
			],
			"type":"VEC3"
		},
		{
			"bufferView":4,
			"componentType":5126,
			"count":98,
			"type":"VEC3"
		},
		{
			"bufferView":5,
			"componentType":5123,
			"count":180,
			"type":"SCALAR"
		}
	],
	"bufferViews":[
		{
			"buffer":0,
			"byteLength":4512,
			"byteOffset":0,
			"target":34962
		},
		{
			"buffer":0,
			"byteLength":4512,
			"byteOffset":4512,
			"target":34962
		},
		{
			"buffer":0,
			"byteLength":1248,
			"byteOffset":9024,
			"target":34963
		},
		{
			"buffer":0,
			"byteLength":1176,
			"byteOffset":10272,
			"target":34962
		},
		{
			"buffer":0,
			"byteLength":1176,
			"byteOffset":11448,
			"target":34962
		},
		{
			"buffer":0,
			"byteLength":360,
			"byteOffset":12624,
			"target":34963
		}
	],
	"buffers":[
		{
			"byteLength":12984,
			"uri":"Witch_Hat_own.bin"
		}
	]
}
