{
	"asset":{
		"generator":"Khronos glTF Blender I/O v5.2.39",
		"version":"2.0"
	},
	"scene":0,
	"scenes":[
		{
			"name":"Scene",
			"nodes":[
				0
			]
		}
	],
	"nodes":[
		{
			"mesh":0,
			"name":"Witch_Hair_own"
		}
	],
	"materials":[
		{
			"doubleSided":true,
			"emissiveFactor":[
				0.0017999999690800905,
				0.0012250000145286322,
				0.0024999999441206455
			],
			"name":"WitchHair_own",
			"pbrMetallicRoughness":{
				"baseColorFactor":[
					0.007199999876320362,
					0.004900000058114529,
					0.009999999776482582,
					1
				],
				"metallicFactor":0,
				"roughnessFactor":0.9200000166893005
			}
		}
	],
	"meshes":[
		{
			"name":"Witch_Hair_own.007",
			"primitives":[
				{
					"attributes":{
						"POSITION":0,
						"NORMAL":1
					},
					"indices":2,
					"material":0
				}
			]
		}
	],
	"accessors":[
		{
			"bufferView":0,
			"componentType":5126,
			"count":1172,
			"max":[
				0.21377770602703094,
				0.30088740587234497,
				0.2878813147544861
			],
			"min":[
				-0.21991422772407532,
				-0.5080788135528564,
				-0.14800000190734863
			],
			"type":"VEC3"
		},
		{
			"bufferView":1,
			"componentType":5126,
			"count":1172,
			"type":"VEC3"
		},
		{
			"bufferView":2,
			"componentType":5123,
			"count":1956,
			"type":"SCALAR"
		}
	],
	"bufferViews":[
		{
			"buffer":0,
			"byteLength":14064,
			"byteOffset":0,
			"target":34962
		},
		{
			"buffer":0,
			"byteLength":14064,
			"byteOffset":14064,
			"target":34962
		},
		{
			"buffer":0,
			"byteLength":3912,
			"byteOffset":28128,
			"target":34963
		}
	],
	"buffers":[
		{
			"byteLength":32040,
			"uri":"Witch_Hair_own.bin"
		}
	]
}
