{
	"asset":{
		"generator":"Khronos glTF Blender I/O v5.2.39",
		"version":"2.0"
	},
	"scene":0,
	"scenes":[
		{
			"name":"Scene",
			"nodes":[
				0
			]
		}
	],
	"nodes":[
		{
			"mesh":0,
			"name":"Witch_Face_own"
		}
	],
	"materials":[
		{
			"doubleSided":true,
			"emissiveFactor":[
				0.2187899947166443,
				0.1811400055885315,
				0.19148999452590942
			],
			"name":"WitchFace_own",
			"pbrMetallicRoughness":{
				"baseColorFactor":[
					0.7293000221252441,
					0.6037999987602234,
					0.6383000016212463,
					1
				],
				"metallicFactor":0,
				"roughnessFactor":0.9200000166893005
			}
		},
		{
			"doubleSided":true,
			"emissiveFactor":[
				0.019152000546455383,
				0.0013719999697059393,
				0.01783600077033043
			],
			"name":"WitchLips_own",
			"pbrMetallicRoughness":{
				"baseColorFactor":[
					0.06840000301599503,
					0.004900000058114529,
					0.06369999796152115,
					1
				],
				"metallicFactor":0,
				"roughnessFactor":0.9200000166893005
			}
		}
	],
	"meshes":[
		{
			"name":"Witch_Face_own.007",
			"primitives":[
				{
					"attributes":{
						"POSITION":0,
						"NORMAL":1
					},
					"indices":2,
					"material":0
				},
				{
					"attributes":{
						"POSITION":3,
						"NORMAL":4
					},
					"indices":5,
					"material":1
				}
			]
		}
	],
	"accessors":[
		{
			"bufferView":0,
			"componentType":5126,
			"count":474,
			"max":[
				0.19473566114902496,
				0.2150000035762787,
				-0.009999999776482582
			],
			"min":[
				-0.19473566114902496,
				-0.04424174502491951,
				-0.25682327151298523
			],
			"type":"VEC3"
		},
		{
			"bufferView":1,
			"componentType":5126,
			"count":474,
			"type":"VEC3"
		},
		{
			"bufferView":2,
			"componentType":5123,
			"count":792,
			"type":"SCALAR"
		},
		{
			"bufferView":3,
			"componentType":5126,
			"count":644,
			"max":[
				0.1803293377161026,
				0.20778538286685944,
				-0.03400000184774399
			],
			"min":[
				-0.1803293377161026,
				-0.00800000037997961,
				-0.20000000298023224
			],
			"type":"VEC3"
		},
		{
			"bufferView":4,
			"componentType":5126,
			"count":644,
			"type":"VEC3"
		},
		{
			"bufferView":5,
			"componentType":5123,
			"count":1008,
			"type":"SCALAR"
		}
	],
	"bufferViews":[
		{
			"buffer":0,
			"byteLength":5688,
			"byteOffset":0,
			"target":34962
		},
		{
			"buffer":0,
			"byteLength":5688,
			"byteOffset":5688,
			"target":34962
		},
		{
			"buffer":0,
			"byteLength":1584,
			"byteOffset":11376,
			"target":34963
		},
		{
			"buffer":0,
			"byteLength":7728,
			"byteOffset":12960,
			"target":34962
		},
		{
			"buffer":0,
			"byteLength":7728,
			"byteOffset":20688,
			"target":34962
		},
		{
			"buffer":0,
			"byteLength":2016,
			"byteOffset":28416,
			"target":34963
		}
	],
	"buffers":[
		{
			"byteLength":30432,
			"uri":"Witch_Face_own.bin"
		}
	]
}
