{
	"asset":{
		"generator":"Khronos glTF Blender I/O v5.2.39",
		"version":"2.0"
	},
	"scene":0,
	"scenes":[
		{
			"name":"Scene",
			"nodes":[
				0
			]
		}
	],
	"nodes":[
		{
			"mesh":0,
			"name":"Witch_Bodice_own"
		}
	],
	"materials":[
		{
			"doubleSided":true,
			"emissiveFactor":[
				0.004149999935179949,
				0.002725000027567148,
				0.006099999882280827
			],
			"name":"WitchDress_own",
			"pbrMetallicRoughness":{
				"baseColorFactor":[
					0.016599999740719795,
					0.010900000110268593,
					0.024399999529123306,
					1
				],
				"metallicFactor":0,
				"roughnessFactor":0.9200000166893005
			}
		},
		{
			"doubleSided":true,
			"emissiveFactor":[
				0.18232500553131104,
				0.15094999969005585,
				0.15957500040531158
			],
			"name":"WitchSkin_own",
			"pbrMetallicRoughness":{
				"baseColorFactor":[
					0.7293000221252441,
					0.6037999987602234,
					0.6383000016212463,
					1
				],
				"metallicFactor":0,
				"roughnessFactor":0.9200000166893005
			}
		}
	],
	"meshes":[
		{
			"name":"Witch_Bodice_own.007",
			"primitives":[
				{
					"attributes":{
						"POSITION":0,
						"NORMAL":1
					},
					"indices":2,
					"material":0
				},
				{
					"attributes":{
						"POSITION":3,
						"NORMAL":4
					},
					"indices":5,
					"material":1
				}
			]
		}
	],
	"accessors":[
		{
			"bufferView":0,
			"componentType":5126,
			"count":880,
			"max":[
				0.1835259050130844,
				0.2576620876789093,
				0.15358220040798187
			],
			"min":[
				-0.1835259050130844,
				-0.15000000596046448,
				-0.19599999487400055
			],
			"type":"VEC3"
		},
		{
			"bufferView":1,
			"componentType":5126,
			"count":880,
			"type":"VEC3"
		},
		{
			"bufferView":2,
			"componentType":5123,
			"count":1440,
			"type":"SCALAR"
		},
		{
			"bufferView":3,
			"componentType":5126,
			"count":18,
			"max":[
				0.0860000029206276,
				0.24799999594688416,
				-0.10400000214576721
			],
			"min":[
				-0.0860000029206276,
				0.09600000083446503,
				-0.15000000596046448
			],
			"type":"VEC3"
		},
		{
			"bufferView":4,
			"componentType":5126,
			"count":18,
			"type":"VEC3"
		},
		{
			"bufferView":5,
			"componentType":5123,
			"count":24,
			"type":"SCALAR"
		}
	],
	"bufferViews":[
		{
			"buffer":0,
			"byteLength":10560,
			"byteOffset":0,
			"target":34962
		},
		{
			"buffer":0,
			"byteLength":10560,
			"byteOffset":10560,
			"target":34962
		},
		{
			"buffer":0,
			"byteLength":2880,
			"byteOffset":21120,
			"target":34963
		},
		{
			"buffer":0,
			"byteLength":216,
			"byteOffset":24000,
			"target":34962
		},
		{
			"buffer":0,
			"byteLength":216,
			"byteOffset":24216,
			"target":34962
		},
		{
			"buffer":0,
			"byteLength":48,
			"byteOffset":24432,
			"target":34963
		}
	],
	"buffers":[
		{
			"byteLength":24480,
			"uri":"Witch_Bodice_own.bin"
		}
	]
}
