{
	"asset":{
		"generator":"Khronos glTF Blender I/O v5.2.39",
		"version":"2.0"
	},
	"scene":0,
	"scenes":[
		{
			"name":"Scene",
			"nodes":[
				0
			]
		}
	],
	"nodes":[
		{
			"mesh":0,
			"name":"Witch_Skirt_own"
		}
	],
	"materials":[
		{
			"doubleSided":true,
			"emissiveFactor":[
				0.008275000378489494,
				0.0038250000216066837,
				0.013749999925494194
			],
			"name":"WitchTrim_own",
			"pbrMetallicRoughness":{
				"baseColorFactor":[
					0.03310000151395798,
					0.015300000086426735,
					0.054999999701976776,
					1
				],
				"metallicFactor":0,
				"roughnessFactor":0.9200000166893005
			}
		},
		{
			"doubleSided":true,
			"emissiveFactor":[
				0.004149999935179949,
				0.002725000027567148,
				0.006099999882280827
			],
			"name":"WitchDress_own",
			"pbrMetallicRoughness":{
				"baseColorFactor":[
					0.016599999740719795,
					0.010900000110268593,
					0.024399999529123306,
					1
				],
				"metallicFactor":0,
				"roughnessFactor":0.9200000166893005
			}
		}
	],
	"meshes":[
		{
			"name":"Witch_Skirt_own.007",
			"primitives":[
				{
					"attributes":{
						"POSITION":0,
						"NORMAL":1
					},
					"indices":2,
					"material":0
				},
				{
					"attributes":{
						"POSITION":3,
						"NORMAL":4
					},
					"indices":5,
					"material":1
				}
			]
		}
	],
	"accessors":[
		{
			"bufferView":0,
			"componentType":5126,
			"count":122,
			"max":[
				0.22409479320049286,
				0.07199999690055847,
				0.20187850296497345
			],
			"min":[
				-0.22409479320049286,
				-0.006000000052154064,
				-0.20187850296497345
			],
			"type":"VEC3"
		},
		{
			"bufferView":1,
			"componentType":5126,
			"count":122,
			"type":"VEC3"
		},
		{
			"bufferView":2,
			"componentType":5123,
			"count":216,
			"type":"SCALAR"
		},
		{
			"bufferView":3,
			"componentType":5126,
			"count":602,
			"max":[
				0.3400493264198303,
				-0.006000000052154064,
				0.306628942489624
			],
			"min":[
				-0.3400493264198303,
				-0.3279658555984497,
				-0.306628942489624
			],
			"type":"VEC3"
		},
		{
			"bufferView":4,
			"componentType":5126,
			"count":602,
			"type":"VEC3"
		},
		{
			"bufferView":5,
			"componentType":5123,
			"count":1008,
			"type":"SCALAR"
		}
	],
	"bufferViews":[
		{
			"buffer":0,
			"byteLength":1464,
			"byteOffset":0,
			"target":34962
		},
		{
			"buffer":0,
			"byteLength":1464,
			"byteOffset":1464,
			"target":34962
		},
		{
			"buffer":0,
			"byteLength":432,
			"byteOffset":2928,
			"target":34963
		},
		{
			"buffer":0,
			"byteLength":7224,
			"byteOffset":3360,
			"target":34962
		},
		{
			"buffer":0,
			"byteLength":7224,
			"byteOffset":10584,
			"target":34962
		},
		{
			"buffer":0,
			"byteLength":2016,
			"byteOffset":17808,
			"target":34963
		}
	],
	"buffers":[
		{
			"byteLength":19824,
			"uri":"Witch_Skirt_own.bin"
		}
	]
}
