{
	"asset":{
		"generator":"Khronos glTF Blender I/O v5.2.39",
		"version":"2.0"
	},
	"scene":0,
	"scenes":[
		{
			"name":"Scene",
			"nodes":[
				0
			]
		}
	],
	"nodes":[
		{
			"mesh":0,
			"name":"Witch_Broom_own"
		}
	],
	"materials":[
		{
			"doubleSided":true,
			"emissiveFactor":[
				0.026650000363588333,
				0.011725000105798244,
				0.004900000058114529
			],
			"name":"WitchWood_own",
			"pbrMetallicRoughness":{
				"baseColorFactor":[
					0.10660000145435333,
					0.04690000042319298,
					0.019600000232458115,
					1
				],
				"metallicFactor":0,
				"roughnessFactor":0.9200000166893005
			}
		},
		{
			"doubleSided":true,
			"emissiveFactor":[
				0.09830000251531601,
				0.058274999260902405,
				0.013749999925494194
			],
			"name":"WitchStraw_own",
			"pbrMetallicRoughness":{
				"baseColorFactor":[
					0.39320001006126404,
					0.23309999704360962,
					0.054999999701976776,
					1
				],
				"metallicFactor":0,
				"roughnessFactor":0.9200000166893005
			}
		}
	],
	"meshes":[
		{
			"name":"Witch_Broom_own.007",
			"primitives":[
				{
					"attributes":{
						"POSITION":0,
						"NORMAL":1
					},
					"indices":2,
					"material":0
				},
				{
					"attributes":{
						"POSITION":3,
						"NORMAL":4
					},
					"indices":5,
					"material":1
				}
			]
		}
	],
	"accessors":[
		{
			"bufferView":0,
			"componentType":5126,
			"count":124,
			"max":[
				0.031176915392279625,
				0.6620000004768372,
				0.035999998450279236
			],
			"min":[
				-0.031176915392279625,
				-0.5600000023841858,
				-0.035999998450279236
			],
			"type":"VEC3"
		},
		{
			"bufferView":1,
			"componentType":5126,
			"count":124,
			"type":"VEC3"
		},
		{
			"bufferView":2,
			"componentType":5123,
			"count":216,
			"type":"SCALAR"
		},
		{
			"bufferView":3,
			"componentType":5126,
			"count":473,
			"max":[
				0.11485050618648529,
				-0.33000001311302185,
				0.12044142186641693
			],
			"min":[
				-0.11485394835472107,
				-0.7034313082695007,
				-0.12047045677900314
			],
			"type":"VEC3"
		},
		{
			"bufferView":4,
			"componentType":5126,
			"count":473,
			"type":"VEC3"
		},
		{
			"bufferView":5,
			"componentType":5123,
			"count":816,
			"type":"SCALAR"
		}
	],
	"bufferViews":[
		{
			"buffer":0,
			"byteLength":1488,
			"byteOffset":0,
			"target":34962
		},
		{
			"buffer":0,
			"byteLength":1488,
			"byteOffset":1488,
			"target":34962
		},
		{
			"buffer":0,
			"byteLength":432,
			"byteOffset":2976,
			"target":34963
		},
		{
			"buffer":0,
			"byteLength":5676,
			"byteOffset":3408,
			"target":34962
		},
		{
			"buffer":0,
			"byteLength":5676,
			"byteOffset":9084,
			"target":34962
		},
		{
			"buffer":0,
			"byteLength":1632,
			"byteOffset":14760,
			"target":34963
		}
	],
	"buffers":[
		{
			"byteLength":16392,
			"uri":"Witch_Broom_own.bin"
		}
	]
}
