{
	"asset":{
		"generator":"Khronos glTF Blender I/O v5.2.39",
		"version":"2.0"
	},
	"scene":0,
	"scenes":[
		{
			"name":"Scene",
			"nodes":[
				0
			]
		}
	],
	"nodes":[
		{
			"mesh":0,
			"name":"Witch_Panties_own"
		}
	],
	"materials":[
		{
			"doubleSided":true,
			"emissiveFactor":[
				0.21462500095367432,
				0.21462500095367432,
				0.1968500018119812
			],
			"name":"WitchPanty_own",
			"pbrMetallicRoughness":{
				"baseColorFactor":[
					0.8585000038146973,
					0.8585000038146973,
					0.7874000072479248,
					1
				],
				"metallicFactor":0,
				"roughnessFactor":0.9200000166893005
			}
		},
		{
			"doubleSided":true,
			"emissiveFactor":[
				0.012725000269711018,
				0.03685000166296959,
				0.15094999969005585
			],
			"name":"WitchDot_own",
			"pbrMetallicRoughness":{
				"baseColorFactor":[
					0.05090000107884407,
					0.14740000665187836,
					0.6037999987602234,
					1
				],
				"metallicFactor":0,
				"roughnessFactor":0.9200000166893005
			}
		}
	],
	"meshes":[
		{
			"name":"Witch_Panties_own.007",
			"primitives":[
				{
					"attributes":{
						"POSITION":0,
						"NORMAL":1
					},
					"indices":2,
					"material":0
				},
				{
					"attributes":{
						"POSITION":3,
						"NORMAL":4
					},
					"indices":5,
					"material":1
				}
			]
		}
	],
	"accessors":[
		{
			"bufferView":0,
			"componentType":5126,
			"count":142,
			"max":[
				0.1940155327320099,
				0.029999999329447746,
				0.17800000309944153
			],
			"min":[
				-0.1940155327320099,
				-0.12600000202655792,
				-0.17800000309944153
			],
			"type":"VEC3"
		},
		{
			"bufferView":1,
			"componentType":5126,
			"count":142,
			"type":"VEC3"
		},
		{
			"bufferView":2,
			"componentType":5123,
			"count":240,
			"type":"SCALAR"
		},
		{
			"bufferView":3,
			"componentType":5126,
			"count":594,
			"max":[
				0.20712894201278687,
				0.03799999877810478,
				0.17800000309944153
			],
			"min":[
				-0.20722514390945435,
				-0.12200000137090683,
				-0.1787336766719818
			],
			"type":"VEC3"
		},
		{
			"bufferView":4,
			"componentType":5126,
			"count":594,
			"type":"VEC3"
		},
		{
			"bufferView":5,
			"componentType":5123,
			"count":1128,
			"type":"SCALAR"
		}
	],
	"bufferViews":[
		{
			"buffer":0,
			"byteLength":1704,
			"byteOffset":0,
			"target":34962
		},
		{
			"buffer":0,
			"byteLength":1704,
			"byteOffset":1704,
			"target":34962
		},
		{
			"buffer":0,
			"byteLength":480,
			"byteOffset":3408,
			"target":34963
		},
		{
			"buffer":0,
			"byteLength":7128,
			"byteOffset":3888,
			"target":34962
		},
		{
			"buffer":0,
			"byteLength":7128,
			"byteOffset":11016,
			"target":34962
		},
		{
			"buffer":0,
			"byteLength":2256,
			"byteOffset":18144,
			"target":34963
		}
	],
	"buffers":[
		{
			"byteLength":20400,
			"uri":"Witch_Panties_own.bin"
		}
	]
}
